{"title":"30.Nights.Of.Paranormal.Activity.2013.DVDDRip.SuspecT","uid":8072731,"size":733556788,"categoryP":"video","categoryS":"hd___movies","magnet":"?xt=urn:btih:74059f3e0699b170344c04cfe65ed0d516995830&amp;dn=30.Nights.Of.Paranormal.Activity.2013.DVDDRip.SuspecT&amp;tr=udp%3A%2F%2Ftracker.openbittorrent.com%3A80&amp;tr=udp%3A%2F%2Fopen.demonii.com%3A1337&amp;tr=udp%3A%2F%2Ftracker.coppersurfer.tk%3A6969&amp;tr=udp%3A%2F%2Fexodus.desync.com%3A6969","seeders":1,"leechers":0,"uploader":"Hr.Janno","files":-1,"time":1359310695,"description":"Video\nID                                       : 1\nFormat                                   : AVC\nFormat/Info                              : Advanced Video Codec\nFormat profile                           : &lt;a class=&quot;__cf_email__&quot; href=&quot;/cdn-cgi/l/email-protection&quot; data-cfemail=&quot;c48cada3ac8488f7eaf4&quot;&gt;[email&amp;#160;protected]&lt;/a&gt;&lt;script cf-hash='f9e31' type=&quot;text/javascript&quot;&gt;\n/* &lt;![CDATA[ */!function(){try{var t=&quot;currentScript&quot;in document?document.currentScript:function(){for(var t=document.getElementsByTagName(&quot;script&quot;),e=t.length;e--;)if(t[e].getAttribute(&quot;cf-hash&quot;))return t[e]}();if(t&amp;&amp;t.previousSibling){var e,r,n,i,c=t.previousSibling,a=c.getAttribute(&quot;data-cfemail&quot;);if(a){for(e=&quot;&quot;,r=parseInt(a.substr(0,2),16),n=2;a.length-n;n+=2)i=parseInt(a.substr(n,2),16)^r,e+=String.fromCharCode(i);e=document.createTextNode(e),c.parentNode.replaceChild(e,c)}}}catch(u){}}();/* ]]&gt; */&lt;/script&gt;\nFormat settings, CABAC                   : Yes\nFormat settings, ReFrames                : 4 frames\nCodec ID                                 : avc1\nCodec ID/Info                            : Advanced Video Coding\nDuration                                 : 1h 19mn\nBit rate                                 : 1 143 Kbps\nMaximum bit rate                         : 15.6 Mbps\nWidth                                    : 704 pixels\nHeight                                   : 544 pixels\nDisplay aspect ratio                     : 1.882\nFrame rate mode                          : Constant\nFrame rate                               : 25.000 fps\nColor space                              : YUV\nChroma subsampling                       : 4:2:0\nBit depth                                : 8 bits\nScan type                                : Progressive\nBits/(Pixel*Frame)                       : 0.119\nStream size                              : 653 MiB (93%)\nTitle                                    : Video\nWriting library                          : x264\n\nAudio\nID                                       : 2\nFormat                                   : AAC\nFormat/Info                              : Advanced Audio Codec\nFormat profile                           : HE-AAC / LC\nCodec ID                                 : 40\nDuration                                 : 1h 19mn\nBit rate mode                            : Variable\nBit rate                                 : 78.0 Kbps\nMaximum bit rate                         : 106 Kbps\nChannel(s)                               : 2 channels\nChannel positions                        : Front: L R\nSampling rate                            : 48.0 KHz / 24.0 KHz\nCompression mode                         : Lossy\nDelay relative to video                  : 80ms\nStream size                              : 44.6 MiB (6%)\nLanguage                                 : English\nSubtitle                                 : Estonia (.SRT)\n\n\n\nNIIPALJU VEEL, ET EESTI TÃ•LGE ON POOLIK :)\n\nKUI KEEGI VIITSIB SIIS Ã„KKI TEEB LÃ•PUNI!!!!!","torrent":{"xt":"urn:btih:74059f3e0699b170344c04cfe65ed0d516995830","amp;dn":"30.Nights.Of.Paranormal.Activity.2013.DVDDRip.SuspecT","amp;tr":["udp%3A%2F%2Ftracker.openbittorrent.com%3A80","udp%3A%2F%2Fopen.demonii.com%3A1337","udp%3A%2F%2Ftracker.coppersurfer.tk%3A6969","udp%3A%2F%2Fexodus.desync.com%3A6969"],"infoHash":"74059f3e0699b170344c04cfe65ed0d516995830","infoHashBuffer":{"type":"Buffer","data":[116,5,159,62,6,153,177,112,52,76,4,207,230,94,208,213,22,153,88,48]},"announce":[],"urlList":[]}}